# AST/ASF file generated using VICON BodyLanguage
# -----------------------------------------------
:version 1.10
:name VICON
:units
  mass 1.0
  length 0.45
  angle deg
:documentation
   .ast/.asf automatically generated from VICON data using
   VICON BodyBuilder and BodyLanguage model FoxedUp or BRILLIANT.MOD
:root
   order TX TY TZ RX RY RZ
   axis XYZ
   position 0 0 0  
   orientation 0 0 0 
:bonedata
  begin
     id 1 
     name lhipjoint
     direction 0.560651 -0.75055 0.34978 
     length 2.44936 
     axis 0 0 0  XYZ
  end
  begin
     id 2 
     name lfemur
     direction 0.34202 -0.939693 0  
     length 7.42139  
     axis 0 0 20  XYZ
    dof rx ry rz
    limits (-160.0 20.0)
           (-70.0 70.0)
           (-60.0 70.0)
  end
  begin
     id 3 
     name ltibia
     direction 0.34202 -0.939693 0   
     length 7.75674   
     axis 0 0 20   XYZ
    dof rx
    limits (-10.0 170.0)
  end
  begin
     id 4 
     name lfoot
     direction 0.0925879 -0.254383 0.962661   
     length 2.38688   
     axis -90 7.62852e-016 20   XYZ
    dof rx rz
    limits (-45.0 90.0)
           (-70.0 20.0)
  end
  begin
     id 5 
     name ltoes
     direction 1.53567e-011 -4.21973e-011 1   
     length 1.19228   
     axis -90 7.62852e-016 20   XYZ
    dof rx
    limits (-90.0 20.0)
  end
  begin
     id 6 
     name rhipjoint
     direction -0.540087 -0.762838 0.355506   
     length 2.4099  
     axis 0 0 0  XYZ 
  end
  begin
     id 7 
     name rfemur
     direction -0.34202 -0.939693 0   
     length 7.70794   
     axis 0 0 -20   XYZ
    dof rx ry rz
    limits (-160.0 20.0)
           (-70.0 70.0)
           (-70.0 60.0)
  end
  begin
     id 8 
     name rtibia
     direction -0.34202 -0.939693 0   
     length 7.66106   
     axis 0 0 -20   XYZ
    dof rx
    limits (-10.0 170.0)
 end
 begin
     id 9 
     name rfoot
     direction -0.0830975 -0.228308 0.970036   
     length 2.4989  
     axis -90 -7.62852e-016 -20   XYZ
    dof rx rz
    limits (-45.0 90.0)
           (-20.0 70.0)
  end
  begin
     id 10 
     name rtoes
     direction -1.53517e-011 -4.21842e-011 1   
     length 1.2498   
     axis -90 -7.62852e-016 -20   XYZ
    dof rx
    limits (-90.0 20.0)
  end
  begin
     id 11 
     name lowerback
     direction 0.0266356 0.99402 -0.105896   
     length 2.1545   
     axis 0 0 0   XYZ
    dof rx ry rz
    limits (-20.0 45.0)
           (-30.0 30.0)
           (-30.0 30.0)
  end
  begin
     id 12 
     name upperback
     direction 0.0130547 0.999192 0.0380027   
     length 2.1434   
     axis 0 0 0   XYZ
    dof rx ry rz
    limits (-20.0 45.0)
           (-30.0 30.0)
           (-30.0 30.0)
  end
  begin
     id 13 
     name thorax
     direction 0.000590299 0.996288 0.0860764   
     length 2.19049   
     axis 0 0 0   XYZ
    dof rx ry rz
    limits (-20.0 45.0)
           (-30.0 30.0)
           (-30.0 30.0)
  end
  begin
     id 14 
     name lowerneck
     direction -0.0432125 0.978219 0.203028   
     length 1.62441   
     axis 0 0 0   XYZ
    dof rx ry rz
    limits (-20.0 45.0)
           (-30.0 30.0)
           (-30.0 30.0)
  end
  begin
     id 15 
     name upperneck
     direction -0.0192309 0.991699 -0.127138   
     length 1.66666   
     axis 0 0 0   XYZ
    dof rx ry rz
    limits (-20.0 45.0)
           (-30.0 30.0)
           (-30.0 30.0)
  end
  begin
     id 16
     name head
     direction -0.00434499 0.997882 -0.0649107  
     length 1.67142  
     axis 0 0 0   XYZ
    dof rx ry rz
    limits (-20.0 45.0)
           (-30.0 30.0)
           (-30.0 30.0)
  end
  begin
     id 17 
     name lclavicle
     direction 0.970351 0.240904 -0.0196058  
     length 4.04862  
     axis 0 0 0   XYZ
    dof ry rz
    limits (-20.0 10.0)
           (0.0 20.0)
  end
  begin
     id 18 
     name lhumerus
     direction 1 -4.4896e-011 -1.40911e-018   
     length 5.58345   
     axis 180 -30 -90   XYZ
    dof rx ry rz
    limits (-60.0 90.0)
           (-90.0 90.0)
           (-90.0 90.0)
  end
  begin
     id 19
     name lradius
     direction 1 -4.48968e-011 5.88912e-028   
     length 3.71087   
     axis 180 -30 -90   XYZ
    dof rx
    limits (-10.0 170.0)
  end
  begin
     id 20
     name lwrist
     direction 1 -4.48955e-011 -8.83775e-028   
     length 1.85544   
     axis 5.52448e-016 90 90   XYZ
    dof ry
    limits (-180.0 0.0)
 end
  begin
     id 21 
     name lhand
     direction 1 -4.49035e-011 -1.76755e-027   
     length 0.562322   
     axis 1.12785e-015 90 90   XYZ
    dof rx rz
    limits (-90.0 90.0)
           (-45.0 45.0)
  end
  begin
     id 22 
     name lfingers
     direction 1 -4.48824e-011 -3.5351e-027   
     length 0.453359   
     axis 2.2557e-015 90 90   XYZ
    dof rx
    limits (0.0 90.0)
  end
  begin
     id 23
     name lthumb
     direction 0.707107 -6.34888e-011 0.707107   
     length 0.650935   
     axis -90 45 2.85299e-015   XYZ
    dof rx rz
    limits (-45.0 45.0)
           (-45.0 45.0)
  end
  begin
     id 24 
     name rclavicle
     direction -0.96165 0.268562 -0.0557131   
     length 4.05446  
     axis 0 0 0   XYZ 
    dof ry rz
    limits (-10.0 20.0)
           (-20.0 0.0)
  end
  begin
     id 25 
     name rhumerus
     direction -1 -4.48957e-011 -3.36329e-027  
     length 5.20357   
     axis 180 30 90   XYZ
    dof rx ry rz
    limits (-90.0 60.0)
           (-90.0 90.0)
           (-90.0 90.0)
  end
  begin
     id 26 
     name rradius
     direction -1 -4.48974e-011 4.51441e-027   
     length 3.64937   
     axis 180 30 90   XYZ
    dof rx
    limits (-10.0 170.0)
  end
  begin
     id 27 
     name rwrist
     direction -1 -4.4896e-011 -8.83775e-028   
     length 1.82468   
     axis 5.52448e-016 -90 -90   XYZ
    dof ry
    limits (-180.0 0.0)
  end
  begin
     id 28
     name rhand
     direction -1 -4.48996e-011 -1.76755e-027   
     length 0.617996   
     axis 1.12785e-015 -90 -90   XYZ
    dof rx rz
    limits (-90.0 90.0)
           (-45.0 45.0)
  end
  begin
     id 29
     name rfingers
     direction -1 -4.48957e-011 -3.5351e-027   
     length 0.498244   
     axis 2.2557e-015 -90 -90   XYZ
    dof rx
    limits (0.0 90.0)
  end
  begin
     id 30
     name rthumb
     direction -0.707107 -6.34931e-011 0.707107   
     length 0.715382   
     axis -90 -45 -2.85299e-015   XYZ
    dof rx rz
    limits (-45.0 45.0)
           (-45.0 45.0)
  end
:hierarchy
  begin
    root lhipjoint rhipjoint lowerback
    lhipjoint lfemur
    lfemur ltibia
    ltibia lfoot
    lfoot ltoes
    rhipjoint rfemur
    rfemur rtibia
    rtibia rfoot
    rfoot rtoes
    lowerback upperback
    upperback thorax
    thorax lowerneck lclavicle rclavicle
    lowerneck upperneck
    upperneck head
    lclavicle lhumerus
    lhumerus lradius
    lradius lwrist
    lwrist lhand lthumb
    lhand lfingers
    rclavicle rhumerus
    rhumerus rradius
    rradius rwrist
    rwrist rhand rthumb
    rhand rfingers
  end

#!OML:ASF H:\ManfredETheater\Project 1\Capture day 2\Session 1\Male1.ASF
:FULLY-SPECIFIED
:DEGREES
94
root 6.29804 12.0698 19.2916 10.0456 -33.9212 28.3989
lowerback 49.1622 -1.84831 7.22109
upperback 8.67831 1.62216 4.12417
thorax -10.5928 0.401242 0.441418
lowerneck -22.2001 -4.45206 -5.26602
upperneck 0.479457 -4.30652 -6.73446
head 3.5507 -2.69015 -1.69081
rclavicle 4.13472e-014 0
rhumerus 55.295 -13.1207 -57.6198
rradius 24.9969
rwrist 25.5709
rhand -37.319 -12.9294
rfingers 7.12502
rthumb -10.3823 -42.6531
lclavicle 4.13472e-014 0
lhumerus 23.4615 -26.5523 72.2274
lradius 90.5998
lwrist -8.00848
lhand -26.5583 -5.87392
lfingers 7.12502
lthumb 0.00648817 24.1058
rfemur -94.4974 -18.4293 24.8784
rtibia 122.904
rfoot -34.5464 -22.6161
rtoes -7.40319
lfemur -72.8542 1.67921 8.77271
ltibia 62.3268
lfoot -0.797249 -4.67313
ltoes -18.9306
95
root 6.23154 12.0668 19.7356 11.1136 -35.5815 28.7795
lowerback 49.2627 -1.52747 6.79231
upperback 8.63676 1.75629 3.9672
thorax -10.6759 0.458871 0.410475
lowerneck -22.2944 -4.27554 -4.90854
upperneck -0.0749733 -4.20572 -6.80556
head 3.3841 -2.62916 -1.75121
rclavicle -2.22639e-014 8.98507e-014
rhumerus 57.3809 -13.1106 -59.6309
rradius 23.758
rwrist 27.3098
rhand -37.1828 -13.2855
rfingers 7.12502
rthumb -10.251 -43.0157
lclavicle -2.22639e-014 8.98507e-014
lhumerus 25.8478 -26.7971 71.7697
lradius 89.9527
lwrist -9.94188
lhand -27.0394 -5.97348
lfingers 7.12502
lthumb -0.45811 24.0058
rfemur -95.4649 -19.0559 24.7513
rtibia 123.955
rfoot -34.1319 -22.7678
rtoes -8.61953
lfemur -71.6453 0.547064 11.1526
ltibia 59.7748
lfoot 0.708832 -4.10246
ltoes -21.4339
96
root 6.17185 12.0489 20.1957 12.044 -37.4466 29.2363
lowerback 49.0634 -1.0833 6.208
upperback 8.75679 1.93135 3.9327
thorax -10.5442 0.539545 0.559735
lowerneck -21.9456 -4.17178 -4.97128
upperneck -0.878454 -4.15482 -6.77366
head 3.08537 -2.57308 -1.70342
rclavicle -8.26944e-014 2.34566e-014
rhumerus 59.2136 -12.7295 -61.3837
rradius 22.9261
rwrist 27.7297
rhand -36.8221 -14.0882
rfingers 7.12502
rthumb -9.90301 -43.8353
lclavicle -8.26944e-014 2.34566e-014
lhumerus 28.2694 -26.8924 71.6365
lradius 89.3004
lwrist -11.6369
lhand -26.8052 -6.09458
lfingers 7.12502
lthumb -0.231959 23.885
rfemur -96.4504 -19.7271 24.4138
rtibia 125.059
rfoot -33.6242 -22.6729
rtoes -7.98386
lfemur -70.2162 -0.542175 13.2627
ltibia 58.9607
lfoot -2.62072 -2.52694
ltoes -27.1028
97
root 6.13501 11.9986 20.7003 12.7711 -39.5109 29.8776
lowerback 49.0058 -0.957213 5.86172
upperback 8.81018 1.79584 3.4004
thorax -10.4719 0.493918 0.19833
lowerneck -22.1703 -3.90077 -4.48861
upperneck -1.36229 -3.9472 -6.707
head 2.96238 -2.45639 -1.73669
rclavicle 6.36111e-015 -4.85035e-014
rhumerus 60.8903 -12.0549 -63.8304
rradius 22.1565
rwrist 27.6494
rhand -36.4529 -14.4409
rfingers 7.12502
rthumb -9.5468 -44.2046
lclavicle 6.36111e-015 -4.85035e-014
lhumerus 30.7465 -26.9315 70.8159
lradius 88.6544
lwrist -13.0109
lhand -27.0279 -6.03644
lfingers 7.12502
lthumb -0.44703 23.9428
rfemur -97.6305 -20.9807 23.7456
rtibia 126.35
rfoot -33.047 -21.7249
rtoes -9.00625
lfemur -68.7939 -1.0913 14.2186
ltibia 60.0801
lfoot -6.80105 -1.6136
ltoes -32.6945
98
root 6.10166 11.9486 21.1832 13.7524 -41.3936 29.9885
lowerback 49.0904 -0.763454 5.57363
upperback 8.79581 1.85036 3.3291
thorax -10.5146 0.51044 0.233282
lowerneck -22.4492 -3.62332 -4.25818
upperneck -1.76529 -3.65038 -6.88459
head 2.87608 -2.31533 -1.80314
rclavicle -2.22639e-014 2.06736e-014
rhumerus 62.051 -10.2032 -63.8398
rradius 21.5619
rwrist 25.0676
rhand -39.5525 -16.0975
rfingers 7.12502
rthumb -12.5363 -45.7014
lclavicle -2.22639e-014 2.06736e-014
lhumerus 33.1003 -26.8148 70.2002
lradius 88.1857
lwrist -13.7093
lhand -27.4166 -5.95563
lfingers 7.12502
lthumb -0.82241 24.0225
rfemur -98.5526 -21.9088 23.329
rtibia 127.469
rfoot -32.3059 -21.3252
rtoes -10.4817
lfemur -67.9147 -0.739044 14.1375
ltibia 62.4806
lfoot -9.79508 -0.520291
ltoes -37.9308
